<svg id="Layer_1" xmlns="http://www.w3.org/2000/svg" viewBox="0 0 620.3 112"><style>.st0{fill:#141414}.st1{fill:#0af}</style><path class="st0" d="M204.8 30.6l-6.2 12.8c-6.8-4-15.5-6.8-20.7-6.8-4.3 0-7.2 1.6-7.2 4.7 0 11.2 34.2 4.8 34.2 28.2 0 12.9-11.4 19.8-25.9 19.8-10.8 0-21.9-4-29.6-10.3l6.4-12.7c6.7 5.8 16.6 9.7 23.4 9.7 5.2 0 8.4-1.9 8.4-5.7 0-11.4-34.2-4.6-34.2-27.5 0-11.9 10.3-19.5 25.8-19.5 9.4.1 18.9 3 25.6 7.3zm39.8 55.6c-3.6 2.1-8.5 3.4-13.3 3.4-9.6 0-16.6-5.4-16.6-15.8v-22h-6.9V41.4h6.9V27.5h15.9v13.8h13.1v10.6h-13.1v19.5c0 3.9 1.6 5.5 4.6 5.4 1.6 0 3.8-.6 6.2-1.6l3.2 11zm50.7-29.9v32.5h-15.6V83c-3.3 4.3-8.5 6.5-15.2 6.5-10.6 0-17.1-6.5-17.1-15.6 0-9.4 6.8-15 19.1-15.1h13.1V58c0-4.9-3.3-7.9-9.7-7.9-4.1 0-9.6 1.5-14.8 4.1l-4.5-10.6c7.8-3.6 14.8-5.7 23.1-5.7 13.7.5 21.6 7.1 21.6 18.4zm-15.7 15.6v-4.4h-10.1c-4.8 0-7.2 1.6-7.2 5.4 0 3.6 2.6 5.9 7 5.9 5 0 9.3-2.7 10.3-6.9zm69.6-22.2l-11.4 6.9c-2.3-3.3-5.8-5.2-10.1-5.2-6.2 0-10.4 5.1-10.4 12.6 0 7.7 4.3 12.7 10.4 12.7 4.5 0 8-1.9 10.2-5.7l11.7 6.8c-4 7.3-12.1 11.6-22.6 11.6-15.3 0-25.7-10.2-25.7-25.4 0-15.3 10.4-25.6 25.9-25.6 9.7.1 17.7 4.1 22 11.3zm21.7 25.6v13.6h-16V20.3h16v36.2L387.4 39h18.1l-18.3 19.1L406 88.8h-19l-10.8-19.2-5.3 5.7zm66.8-51.1c16 0 25.3 7.9 25.3 21.7 0 14.3-9.3 22.6-25.3 22.6h-17V89h-7.4V24.2h24.4zm-16.9 37.2h16.6c11.7 0 18.4-5.2 18.4-15.2 0-9.8-6.8-14.8-18.4-14.8h-16.6v30zm80.2 20c-3.9 5.3-10.1 7.9-17.8 7.9-10.1 0-16.6-6.5-16.6-14.9 0-8.5 6.8-13.9 18.2-13.9h16v-3c0-7.2-4.4-11.4-13.1-11.4-5.4 0-10.3 2-15.5 5.5l-3-5.3c6.3-4.1 11.6-6.5 19.9-6.5 12.1 0 18.7 6.4 18.7 16.8l.1 32.2h-7l.1-7.4zm-.1-9.3v-5.8h-15.2c-8.2 0-12.4 2.5-12.4 7.9s4.4 8.9 11.2 8.9c8.2-.1 14.5-4.3 16.4-11zm42.7 13.4c-3.4 2.3-7.2 3.6-11 3.7-7.2 0-12.4-4.3-12.4-13.8V47.6h-7v-5.8h7V28.9h7.2v12.8l15.5-.1v5.9h-15.5V74c0 5.9 2.3 8.2 6.5 8.2 2.5 0 5.1-.9 7.8-2.5l1.9 5.8zm52.5-26.6v30h-7.2V60.8c0-8.6-5.2-13.7-13.8-13.7-10.3.1-16.5 7.4-16.5 17.8v24h-7.2V20.3h7.2v30.8c3.3-7.5 10-11.1 19-11.2 11.7 0 18.5 7.2 18.5 19z"/><path class="st1" d="M113.1 30.1H45.9c-8.6 0-15.7 7-15.7 15.7 0 8.6 7 15.7 15.7 15.7h34.8c2.6 0 4.6 2.1 4.6 4.6 0 2.6-2.1 4.6-4.6 4.6H45.9C32.1 70.7 21 59.5 21 45.8s11.2-24.9 24.9-24.9h61.8L98.1 4.4C96.6 1.7 93.6 0 90.4 0H36.1c-3.2 0-6.1 1.7-7.7 4.4L1.2 51.5c-1.6 2.7-1.6 6.1 0 8.9l12.4 21.4h67.1c8.6 0 15.7-7 15.7-15.7 0-8.6-7-15.7-15.7-15.7H46c-2.6 0-4.6-2.1-4.6-4.6 0-2.6 2.1-4.6 4.6-4.6h34.8c13.8 0 24.9 11.2 24.9 24.9 0 13.8-11.2 24.9-24.9 24.9h-62l9.5 16.5c1.5 2.7 4.5 4.4 7.7 4.4h54.4c3.2 0 6.1-1.7 7.7-4.4l27.2-47.1c1.6-2.7 1.6-6.1 0-8.9l-12.2-21.4z"/><path class="st0" d="M601.4 22.2v9h-2.2v-9H596v-1.9h8.6v1.9h-3.2zm14.4 9v-7.7l-3.1 6.6h-1.5l-3.1-6.6v7.7h-2V20.3h2.5l3.3 6.9 3.3-6.9h2.5v10.9h-1.9z"/></svg>